<svg width="24" height="25" viewBox="0 0 24 25" fill="none" xmlns="http://www.w3.org/2000/svg">
<path d="M17 2.46484H7C4.23858 2.46484 2 4.70342 2 7.46484V17.4648C2 20.2263 4.23858 22.4648 7 22.4648H17C19.7614 22.4648 22 20.2263 22 17.4648V7.46484C22 4.70342 19.7614 2.46484 17 2.46484Z" stroke="white" stroke-width="2" stroke-linecap="round" stroke-linejoin="round"/>
<path d="M16 11.8348C16.1234 12.6671 15.9813 13.5171 15.5938 14.2639C15.2063 15.0107 14.5932 15.6163 13.8416 15.9945C13.0901 16.3728 12.2385 16.5044 11.4078 16.3708C10.5771 16.2371 9.80977 15.8449 9.21485 15.25C8.61993 14.6551 8.22774 13.8877 8.09408 13.0571C7.96042 12.2264 8.09208 11.3747 8.47034 10.6232C8.8486 9.87169 9.4542 9.25858 10.201 8.87108C10.9478 8.48358 11.7978 8.34143 12.63 8.46484C13.4789 8.59072 14.2649 8.9863 14.8717 9.59315C15.4785 10.2 15.8741 10.9859 16 11.8348Z" stroke="white" stroke-width="2" stroke-linecap="round" stroke-linejoin="round"/>
<path d="M17.5 6.96484H17.51" stroke="white" stroke-width="2" stroke-linecap="round" stroke-linejoin="round"/>
</svg>
