<svg width="24" height="25" viewBox="0 0 24 25" fill="none" xmlns="http://www.w3.org/2000/svg">
<path d="M16 8.46484C17.5913 8.46484 19.1174 9.09698 20.2426 10.2222C21.3679 11.3474 22 12.8735 22 14.4648V21.4648H18V14.4648C18 13.9344 17.7893 13.4257 17.4142 13.0506C17.0391 12.6756 16.5304 12.4648 16 12.4648C15.4696 12.4648 14.9609 12.6756 14.5858 13.0506C14.2107 13.4257 14 13.9344 14 14.4648V21.4648H10V14.4648C10 12.8735 10.6321 11.3474 11.7574 10.2222C12.8826 9.09698 14.4087 8.46484 16 8.46484Z" fill="white"/>
<path d="M6 9.46484H2V21.4648H6V9.46484Z" fill="white"/>
<path d="M4 6.46484C5.10457 6.46484 6 5.56941 6 4.46484C6 3.36027 5.10457 2.46484 4 2.46484C2.89543 2.46484 2 3.36027 2 4.46484C2 5.56941 2.89543 6.46484 4 6.46484Z" fill="white"/>
</svg>
